<?xml version="1.0" encoding="UTF-8" standalone="no"?>
<svg
   version="1.1"
   id="svg442"
   width="111"
   height="33.000999"
   xmlns="http://www.w3.org/2000/svg"
   xmlns:svg="http://www.w3.org/2000/svg">
  <defs
     id="defs376" />
  <g
     id="layer1">
    <path
       d="m 12.533,7.372 h 4.118 v 4.901 h -4.265 v 11.87 c 0,1.163 0.217,1.981 0.66,2.454 0.41,0.436 1.082,0.655 1.995,0.655 0.375,0 0.749,-0.038 1.116,-0.114 l 0.186,-0.052 c 0.163,-0.044 0.383,-0.104 0.657,-0.19 v 5.38 A 19.479,19.479 0 0 1 11.77,33 C 8.512,32.993 6.206,32.31 4.854,30.95 3.501,29.59 2.825,27.31 2.825,24.108 V 12.277 H 0 V 7.933 L 0.671,7.847 C 1.016,7.803 1.177,7.783 1.162,7.783 2.382,7.509 3.292,7.107 3.939,6.577 4.655,5.973 5.117,5.102 5.332,3.982 L 5.937,0 h 6.596 z M 75.803,9.71 C 78.352,7.237 81.745,6 85.985,6 90.343,5.996 93.618,7.237 95.81,9.723 97.929,12.13 99,15.673 99,20.333 V 21.38 H 82.391 c 0.095,1.866 0.648,3.275 1.685,4.203 0.99,0.909 2.391,1.369 4.205,1.369 2.705,-0.004 4.629,-1.216 5.771,-3.636 l 4.733,3.369 C 96.6,30.895 92.422,33 86.252,33 81.722,33.004 78.195,31.748 75.674,29.233 73.224,26.817 72,23.555 72,19.449 72,15.4 73.272,12.141 75.804,9.709 Z M 88.11,12.614 C 87.522,11.802 86.576,11.4 85.315,11.4 c -1.404,0 -2.424,0.423 -3.11,1.247 C 81.521,13.504 81.12,14.876 81,16.8 h 8.1 C 89.033,14.84 88.699,13.426 88.11,12.614 Z M 109.328,31.48 C 110.437,30.472 111,29.156 111,27.494 111,25.869 110.437,24.55 109.328,23.531 108.219,22.511 106.78,22 104.986,22 c -1.793,0 -3.242,0.51 -4.353,1.53 C 99.521,24.55 99,25.866 99,27.495 c 0,1.63 0.549,2.983 1.633,3.986 1.084,1.004 2.548,1.52 4.353,1.52 1.806,0 3.244,-0.5 4.342,-1.52 z M 72,27.537 v 4.77 L 59.932,32.3 59.354,29.03 C 57.751,31.673 55.066,33 51.285,33 48.485,33 46.407,32.235 45.065,30.684 43.677,29.109 43,26.68 43,23.374 v -4.328 c 0.47,-0.056 0.93,-0.174 1.366,-0.353 l -0.024,0.012 a 5.958,5.958 0 0 0 2.113,-1.306 l 0.01,-0.01 a 6.4,6.4 0 0 0 1.26,-1.721 c 0.367,-0.796 0.581,-1.649 0.632,-2.518 0.01,-0.157 0.01,-0.307 0.01,-0.484 0,-1.945 -0.62,-3.496 -1.833,-4.666 h 6.502 v 15.235 c 0,1.406 0.257,2.406 0.712,2.958 0.455,0.55 1.19,0.809 2.23,0.809 1.155,0 2.019,-0.384 2.567,-1.203 0.549,-0.82 0.816,-2.103 0.816,-3.857 v -7.354 a 5.98,5.98 0 0 0 -0.034,-1.116 c -0.046,-0.269 -0.3,-0.341 -0.55,-0.375 L 56.502,12.765 57.14,8 h 12.286 v 18.488 c 0,0.452 0.112,0.606 0.58,0.696 0.497,0.102 1.995,0.353 1.995,0.353 z M 19.61,7.717 19,12.5 l 1.96,0.332 c 0.441,0.045 0.598,0.308 0.596,0.694 0,0.226 0.004,0.314 0.007,0.41 0.004,0.116 0.009,0.242 0.009,0.627 l 0.013,11.636 c 0,0.578 -0.22,0.62 -0.539,0.683 l -0.057,0.011 -1.86,0.314 V 32 h 15.458 v -4.76 c 0,0 -1.557,-0.25 -2.08,-0.353 -0.524,-0.102 -0.598,-0.255 -0.596,-0.694 v -6.538 l 0.096,-1.244 c 0.379,-3.333 1.795,-5.206 4.25,-5.621 -0.03,0.099 -0.046,0.2 -0.05,0.302 a 3.007,3.007 0 0 0 0,1.077 c 0.055,0.339 0.165,0.668 0.325,0.976 a 3.736,3.736 0 0 0 1.564,1.56 5.901,5.901 0 0 0 2.768,0.685 5.364,5.364 0 0 0 1.986,-0.314 4.723,4.723 0 0 0 1.624,-0.99 c 0.407,-0.38 0.744,-0.819 0.998,-1.3 0.303,-0.63 0.478,-1.307 0.517,-1.996 C 46,12.665 46,12.541 46,12.397 46,10.657 45.35,9.311 44.05,8.357 42.848,7.477 41.235,7.011 39.2,7 a 9.136,9.136 0 0 0 -0.962,0.044 8.367,8.367 0 0 0 -3.356,1.01 c -0.38,0.217 -0.74,0.465 -1.073,0.741 A 8.197,8.197 0 0 0 31.92,10.939 L 31.315,7.689 19.611,7.718 Z"
       id="path436"
       style="display:inline;fill:#8ff325;fill-opacity:1" />
  </g>
</svg>
