<svg width="187" height="50" viewBox="0 0 187 50" fill="none" xmlns="http://www.w3.org/2000/svg" class="logo">
    <path d="M1.49169e-05 24.9701C0.0149492 11.1559 11.2306 -0.0149193 25.0299 1.49568e-05C38.8292 0.0149492 50.0149 11.2306 50 25.0299C49.9851 38.8292 38.7993 50 25 50C11.1858 49.9851 -0.0149194 38.7844 1.49169e-05 24.9701ZM24.4922 33.5275C22.5508 33.5872 20.6093 33.408 18.7127 33.0048C17.3089 32.721 16.129 31.7802 15.5466 30.466C14.9791 29.1667 14.7103 27.1505 14.7252 24.4325C14.7402 23.0138 14.8298 21.595 14.994 20.1912C15.1583 18.8172 15.3226 17.6822 15.4719 16.7862L15.6362 15.905C15.6362 15.8752 15.6362 15.8602 15.6362 15.8304C15.6362 15.5765 15.457 15.3674 15.2181 15.3226L11.9922 14.8148H11.9474C11.7085 14.8148 11.5143 14.9791 11.4546 15.2031C11.3949 15.4122 11.365 15.5615 11.2754 16.0544C11.0962 17.0102 10.917 17.9361 10.7378 19.2802C10.5436 20.7437 10.4241 22.2222 10.3793 23.7007C10.3047 24.7312 10.3047 25.7617 10.3793 26.7921C10.454 29.5251 10.9319 31.7204 11.7832 33.3483C12.6344 34.9761 14.1129 36.1559 16.1738 36.8728C18.2348 37.5896 21.1022 37.948 24.7909 37.9331H25.2539C28.9427 37.948 31.81 37.6045 33.871 36.8728C35.9319 36.1559 37.3955 34.9761 38.2617 33.3483C39.1278 31.7055 39.5908 29.5251 39.6655 26.7921C39.7402 25.7617 39.7402 24.7312 39.6655 23.7007C39.6207 22.2222 39.5012 20.7437 39.3071 19.2802C39.1129 17.951 38.9486 17.0251 38.7694 16.0544C38.6798 15.5615 38.635 15.4122 38.5902 15.2031C38.5305 14.9791 38.3363 14.8148 38.0974 14.8148H38.0078L34.782 15.3226C34.543 15.3674 34.3638 15.5765 34.3638 15.8304C34.3638 15.8602 34.3638 15.8752 34.3638 15.905L34.543 16.7862C34.7073 17.6822 34.8716 18.8172 35.0359 20.1762C35.2001 21.5801 35.2897 22.9988 35.3047 24.4176C35.3345 27.1356 35.0508 29.1368 34.4833 30.451C33.9158 31.7503 32.7509 32.6912 31.362 32.9898C29.4654 33.3931 27.5239 33.5723 25.5824 33.5126L24.4922 33.5275Z" fill="#283A97" id="circle-logo"></path>
    <path d="M171.774 27.046C171.774 22.058 173.208 18.5484 178.973 18.5484C184.737 18.5484 186.171 22.058 186.171 27.046C186.171 32.0341 184.737 35.5436 178.973 35.5436C173.208 35.5436 171.774 32.0341 171.774 27.046ZM182.512 27.046C182.512 23.5813 182.064 21.595 178.987 21.595C175.911 21.595 175.463 23.5813 175.463 27.046C175.463 30.5108 175.926 32.497 178.987 32.497C182.049 32.497 182.512 30.4958 182.512 27.046Z" fill="#283A97"></path>
    <path d="M72.0131 34.9014C72.1027 35.0507 72.2521 35.1403 72.4313 35.1403H73.7754C74.0442 35.1403 74.2533 34.9313 74.2533 34.6624V19.4145C74.2533 19.1457 74.0442 18.9366 73.7754 18.9366H71.0872C70.8184 18.9366 70.6093 19.1457 70.6093 19.4145V31.5113C69.4594 32.1535 68.1601 32.482 66.8459 32.4522C65.1284 32.4522 64.2772 31.7055 64.2772 30.0478V19.4145C64.2772 19.1457 64.0681 18.9366 63.7993 18.9366H61.126C60.8572 18.9366 60.6481 19.1457 60.6481 19.4145V30.3763C60.6481 33.4826 62.1117 35.5286 66.2186 35.5286C68.1003 35.5137 69.9373 34.9163 71.4755 33.8411L71.9534 34.9163L72.0131 34.9014Z" fill="#283A97"></path>
    <path d="M102.27 23.7007C102.27 20.6243 100.747 18.5484 96.9086 18.5484C95.0567 18.5484 93.2497 19.1159 91.7115 20.1464C91.0245 19.1458 89.7252 18.5484 87.5597 18.5484C85.7975 18.5783 84.08 19.1756 82.6613 20.236L82.1834 19.1607C82.0938 19.0114 81.9444 18.9068 81.7652 18.9068H80.4211C80.1523 18.9068 79.9432 19.1159 79.9432 19.3847V34.6326C79.9432 34.9014 80.1523 35.1105 80.4211 35.1105H83.1093C83.3781 35.1105 83.5872 34.9014 83.5872 34.6326V22.5657C84.6177 21.9534 85.7975 21.6249 86.9922 21.6249C88.4558 21.6249 89.2921 22.1625 89.2921 23.7157V34.6774C89.2921 34.9462 89.5012 35.1553 89.77 35.1553H92.4582C92.727 35.1553 92.9361 34.9462 92.9361 34.6774V22.5657C93.9516 21.9385 95.1463 21.6099 96.3411 21.6099C97.7748 21.6099 98.641 22.1476 98.641 23.7007V34.6625C98.641 34.9313 98.85 35.1404 99.1189 35.1404H101.807C102.076 35.1404 102.285 34.9313 102.285 34.6625L102.27 23.7007Z" fill="#283A97"></path>
    <path d="M110.573 33.856C112.097 34.9761 113.934 35.5735 115.83 35.5436C120.565 35.5436 122.312 32.3626 122.312 27.046C122.312 21.7294 120.565 18.5484 115.83 18.5484C114.292 18.5633 112.784 18.9964 111.484 19.8178V14.9044C111.484 14.6356 111.275 14.4265 111.007 14.4265H108.318C108.05 14.4265 107.841 14.6356 107.841 14.9044V34.6625C107.841 34.9313 108.05 35.1404 108.318 35.1404H109.662C109.842 35.1404 109.991 35.0508 110.081 34.9014L110.573 33.856ZM114.979 32.4522C113.754 32.4522 112.545 32.1386 111.484 31.5113V22.5657C112.545 21.9534 113.754 21.6248 114.979 21.6248C118.16 21.6248 118.638 24.0591 118.638 27.0311C118.638 30.003 118.16 32.4522 114.979 32.4522Z" fill="#283A97"></path>
    <path d="M135.738 21.7294C135.32 21.6697 134.901 21.6398 134.468 21.6547C133.02 21.595 131.586 21.9385 130.317 22.6254V34.6625C130.317 34.9313 130.108 35.1404 129.839 35.1404H127.151C126.882 35.1404 126.673 34.9313 126.673 34.6625V19.4146C126.673 19.1458 126.882 18.9367 127.151 18.9367H128.495C128.674 18.9367 128.823 19.0263 128.913 19.1756L129.391 20.2509C130.869 19.1308 132.676 18.5335 134.528 18.5633C134.946 18.5633 135.379 18.5932 135.798 18.6679C136.051 18.6679 136.246 19.0711 136.246 19.325V21.2664C136.246 21.5352 136.036 21.7443 135.768 21.7443L135.738 21.7294Z" fill="#283A97"></path>
    <path d="M145.027 27.6583C143.429 27.8525 142.458 28.4648 142.458 30.1523C142.458 31.3919 142.996 32.5568 144.952 32.5568C146.192 32.5717 147.401 32.1983 148.417 31.4815V27.285L145.027 27.6583ZM149.313 33.856C147.924 34.9463 146.207 35.5436 144.429 35.5436C140.248 35.5436 138.859 32.9451 138.859 30.3465C138.859 26.8369 141.129 25.3584 144.788 25.0598L148.432 24.776V23.9696C148.432 22.3118 147.655 21.6697 145.251 21.6697C143.743 21.6697 142.249 21.9236 140.83 22.4015C140.786 22.4164 140.726 22.4164 140.681 22.4015C140.412 22.4015 140.203 22.1924 140.203 21.9236V19.773C140.203 19.5639 140.323 19.3847 140.517 19.3101C142.13 18.7724 143.817 18.5036 145.52 18.5036C150.836 18.5036 152.061 20.8334 152.061 24.2832V34.6326C152.061 34.9014 151.852 35.1105 151.583 35.1105H150.239C150.06 35.1105 149.91 35.0209 149.821 34.8716L149.313 33.856Z" fill="#283A97"></path>
    <path d="M167.802 31.81C167.846 31.81 167.906 31.81 167.951 31.81C168.22 31.81 168.429 32.0191 168.429 32.2879V34.4384C168.429 34.6326 168.309 34.8118 168.13 34.8865C166.801 35.3644 165.382 35.6033 163.964 35.5734C158.214 35.5734 156.452 32.1386 156.452 27.0758C156.452 22.0131 158.214 18.5782 163.964 18.5782C165.367 18.5484 166.786 18.7574 168.115 19.2353C168.294 19.31 168.414 19.4892 168.414 19.6834V21.8488C168.414 22.1177 168.205 22.3267 167.936 22.3267C167.876 22.3417 167.832 22.3417 167.772 22.3267C166.607 21.9534 165.382 21.7742 164.158 21.7891C161.007 21.7891 160.096 23.9396 160.096 27.0758C160.096 30.212 161.007 32.3626 164.158 32.3626C165.382 32.3775 166.607 32.1983 167.772 31.8249" fill="#283A97"></path>
</svg>