<svg viewBox="0 0 428.86 346.17" xmlns="http://www.w3.org/2000/svg" >
    <path fill="#eb6f4d" d="M488.39,235.81c-42-78.13-160.8-128.4-247.23-130.78-32.15-.88-76.38,0-112.56,59.45-29,47.66-61,113.16-62.32,159.31-2,69,19,98.23,82.41,114.14,66.33,16.64,146.73,21.39,229.14-9.52C450.37,401.2,516.53,288.12,488.39,235.81ZM450.55,368s-7.91-15.07-17.05-17.3c-14.63-3.56-21.5-2.47-21.5-2.47-13.95,22.22-18.29,31.94-38.26,42.51-64.5,34.14-131.13,38.74-187.44,32.08-53.84-6.37-74.22-28.22-79.86-85.15-3.77-38.1,15.58-95.35,34.39-137.62,23.47-52.72,59.75-58.13,86.28-60.81,71.34-7.19,172.26,24.31,215.08,84.12C457,244,451,280.49,434.74,307,434.74,307,462.67,332.69,450.55,368Z" transform="translate(-66.15 -104.88)"></path>
    <path fill="#eb6f4d" d="M184.5,287.51V276h28.23v66.53h-8.81l-2.52-11.68Q196,345.41,182,345.41q-11.32,0-17.53-8.72t-6.2-31.56V255.33q0-23.55,7.19-32.36t19.33-8.81q12.14,0,18.52,6.29t7.82,22.48L198,246.15q-1.08-11.5-4-15.91a9.93,9.93,0,0,0-8.81-4.41q-5.84,0-9.26,5.67t-3.42,20.77v55.56q0,14.75,3.33,20.32a10.43,10.43,0,0,0,9.44,5.57q13.66,0,14-24.27V287.51Z" transform="translate(-66.15 -104.88)"></path>
    <path fill="#eb6f4d" d="M234.13,342.72V216.85h14.38V342.72Z" transform="translate(-66.15 -104.88)"></path>
    <path fill="#eb6f4d" d="M271.17,342.72V216.85h20.5q13.49,0,20.77,7.55t7.28,26.43q0,21.94-15.28,27,18,4,18,29,0,20-7.37,28t-20.49,8Zm35.25-90.44V248q0-11.32-3.6-15.55t-10.25-4.23h-7v45.13h7Q306.41,273.31,306.42,252.27Zm2,57.9v-4.86q0-22.48-14.2-22.48h-8.63v48.56h8.63q6.83,0,10.52-4.68T308.39,310.17Z" transform="translate(-66.15 -104.88)"></path>
    <path fill="#eb6f4d" d="M354.24,285.71v45.49h31.29v11.51H339.86V216.85H385v11.51H354.24v45.85h28.05v11.5Z" transform="translate(-66.15 -104.88)"></path>
</svg>