<svg width="800" height="613" viewBox="0 0 800 613" fill="none" xmlns="http://www.w3.org/2000/svg">
<g clip-path="url(#clip0_459_14)">
<path d="M0 4.65852C0 0.426685 2.75989 -1.22925 6.43974 0.978663L100.828 55.4405C130.083 72.3678 154.186 113.766 154.186 148.173V261.88C154.186 271.448 152.346 279.36 149.218 285.431C157.866 301.623 163.385 319.47 163.385 335.477V453.049C163.385 487.455 139.282 501.071 110.028 484.143L6.43974 424.346C2.75989 422.322 0 417.538 0 413.306V4.65852ZM101.748 129.038C101.748 120.574 95.8602 110.27 88.5005 106.038L52.4379 85.2473V210.73L89.7884 232.257C96.5961 235.201 101.564 231.705 101.564 223.794V129.038H101.748ZM110.764 313.214C110.764 305.302 105.796 296.103 98.988 290.951L52.4379 264.088V395.275L97.5161 421.402C104.876 425.634 110.764 422.138 110.764 413.674V313.214Z" fill="#200D2F"/>
<path d="M316.468 606.131L259.982 573.564C230.727 556.637 206.624 515.238 206.624 480.832V123.886C206.624 119.654 209.384 117.998 213.064 120.206L252.806 143.021C256.486 145.045 259.246 149.829 259.246 154.061V501.807C259.246 510.27 265.134 520.574 272.493 524.806L304.324 543.205C311.684 547.437 317.572 543.941 317.572 535.477V187.731C317.572 183.499 320.331 181.843 324.011 184.051L363.754 206.866C367.434 208.89 370.193 213.674 370.193 217.906V574.668C369.825 609.258 345.538 622.874 316.468 606.131Z" fill="#200D2F"/>
<path d="M641.215 140.445L436.983 258.385C433.303 260.592 430.543 259.489 430.543 255.993V218.274C430.543 214.778 433.303 210.546 436.983 208.523L793.56 2.63478C797.24 0.42687 800 1.53083 800 5.02669V41.0892C800 41.0892 800 46.241 793.56 52.1288L616.56 214.594L793.56 172.828C800 171.356 800 176.508 800 176.508V212.57C800 216.066 797.24 220.298 793.56 222.322L436.983 428.21C433.303 430.418 430.543 429.314 430.543 425.818V388.099C430.543 384.604 433.303 380.372 436.983 378.348L641.215 260.408L462.926 303.463L641.215 140.445Z" fill="#200D2F"/>
<path d="M793.56 270.16C797.24 267.952 800 269.056 800 272.552V371.172C800 398.955 775.897 435.937 745.906 453.232L632.935 518.55C602.944 535.845 578.841 526.645 578.841 498.863V444.217L436.983 526.093C433.303 528.301 430.543 527.197 430.543 523.702V485.799C430.543 482.303 433.303 478.071 436.983 476.047L793.56 270.16ZM736.339 408.89C743.698 404.658 749.77 395.459 749.77 388.467V345.413L627.415 416.066V459.12C627.415 466.112 633.487 468.32 640.847 463.904L736.339 408.89Z" fill="#200D2F"/>
</g>
<defs>
<clipPath id="clip0_459_14">
<rect width="800" height="613" fill="white"/>
</clipPath>
</defs>
</svg>
